<?xml version="1.0" standalone="no"?>
<!DOCTYPE svg PUBLIC "-//W3C//DTD SVG 20010904//EN"
 "http://www.w3.org/TR/2001/REC-SVG-20010904/DTD/svg10.dtd">
<svg version="1.0" xmlns="http://www.w3.org/2000/svg"
 width="512.000000pt" height="512.000000pt" viewBox="0 0 512.000000 512.000000"
 preserveAspectRatio="xMidYMid meet">

<g transform="translate(0.000000,512.000000) scale(0.100000,-0.100000)"
fill="#000000" stroke="none">
<path d="M2505 4345 c-24 -23 -25 -28 -25 -176 l0 -151 -59 -63 c-106 -114
-106 -112 -109 -462 l-3 -303 -235 0 -234 0 0 118 1 117 43 26 c68 42 97 101
104 208 5 103 -7 152 -48 181 -25 18 -44 20 -174 20 -154 0 -185 -7 -211 -47
-21 -32 -30 -135 -17 -205 14 -72 49 -126 107 -162 l45 -29 0 -113 0 -114
-150 0 c-166 0 -229 -10 -310 -49 -124 -60 -234 -204 -234 -307 0 -69 42 -138
103 -171 l44 -23 504 0 503 0 0 -101 c0 -117 11 -164 51 -213 46 -54 101 -76
197 -76 l82 0 0 -507 0 -508 -175 -139 c-96 -76 -184 -149 -196 -162 -42 -45
-24 -140 33 -170 41 -21 786 -21 827 1 38 19 65 77 57 120 -8 40 -40 70 -249
235 l-146 115 -1 508 0 507 80 0 c121 0 190 37 231 125 16 34 19 66 19 207 l0
167 -26 20 c-27 21 -32 21 -890 21 -474 0 -869 3 -878 6 -45 17 2 120 82 181
87 66 24 64 1328 61 l1179 -3 50 -23 c60 -27 98 -61 136 -121 33 -51 35 -64
13 -85 -13 -14 -61 -16 -375 -16 l-360 0 -24 -25 c-14 -13 -25 -36 -25 -50 0
-14 11 -37 25 -50 l24 -25 373 0 c340 0 377 2 413 19 74 33 124 121 112 196
-15 89 -120 227 -215 278 -83 45 -150 57 -324 57 l-158 0 0 115 0 114 28 15
c39 21 89 75 106 118 11 25 16 70 16 139 l0 101 -34 34 -34 34 -154 0 c-123 0
-158 -3 -176 -16 -39 -27 -52 -67 -52 -161 0 -71 5 -98 24 -138 23 -51 69 -98
106 -110 19 -6 20 -15 20 -126 l0 -119 -234 0 -235 0 -3 303 -3 302 -29 53
c-16 29 -53 79 -83 111 l-53 59 0 152 c0 147 -1 152 -25 175 -13 14 -36 25
-50 25 -14 0 -37 -11 -50 -25z m87 -502 c46 -53 48 -68 48 -368 l0 -285 -90 0
-90 0 0 269 c0 216 3 277 15 312 28 79 82 112 117 72z m-752 -173 c0 -51 -16
-85 -47 -99 -34 -16 -47 -14 -77 10 -22 18 -26 28 -26 75 l0 54 75 0 75 0 0
-40z m1580 -14 c0 -47 -4 -57 -27 -76 -20 -16 -36 -20 -58 -16 -44 9 -65 40
-65 97 l0 49 75 0 75 0 0 -54z m-610 -1116 c0 -147 12 -140 -255 -140 -267 0
-255 -7 -255 140 l0 100 255 0 255 0 0 -100z m-128 -1537 l122 -98 -122 -3
c-66 -1 -178 -1 -247 0 l-126 3 118 97 c65 53 122 97 126 97 4 1 62 -43 129
-96z"/>
<path d="M163 3726 c-60 -19 -99 -51 -130 -104 l-28 -47 -3 -705 c-2 -501 0
-722 8 -765 33 -169 161 -307 327 -351 37 -9 69 -18 70 -19 2 -1 -65 -203
-147 -451 -83 -247 -150 -457 -150 -467 0 -26 45 -67 74 -67 57 0 67 22 212
465 75 231 145 436 155 456 30 60 62 69 253 69 174 0 213 -7 248 -46 9 -11 91
-219 182 -464 170 -458 180 -480 233 -480 28 0 73 41 73 68 0 10 -73 214 -161
452 -89 239 -164 443 -166 453 -5 15 2 17 46 17 91 0 169 50 213 134 26 51 26
141 -1 194 -26 51 -91 108 -138 121 -24 7 -192 11 -455 11 l-418 0 0 415 c0
402 -1 416 -20 435 -28 28 -75 26 -105 -5 l-25 -24 0 -428 c0 -472 0 -471 63
-517 28 -20 43 -21 477 -26 423 -5 449 -6 469 -24 30 -27 28 -86 -3 -115 l-23
-22 -464 3 c-460 3 -464 3 -506 26 -66 35 -110 79 -140 140 l-28 57 -3 704
c-2 617 -1 707 13 727 32 49 84 55 125 14 17 -17 20 -34 20 -124 0 -89 3 -107
21 -130 26 -33 79 -36 109 -6 18 18 20 33 20 134 0 62 -5 128 -11 147 -39 114
-172 182 -286 145z"/>
<path d="M4832 3730 c-49 -11 -108 -55 -139 -102 l-28 -42 -3 -693 -2 -693
-418 0 c-263 0 -431 -4 -455 -11 -48 -13 -112 -70 -139 -122 -25 -51 -27 -140
-3 -191 23 -48 94 -109 143 -124 22 -7 58 -12 82 -12 36 0 42 -3 37 -17 -2
-10 -77 -214 -166 -453 -88 -238 -161 -442 -161 -452 0 -27 45 -68 73 -68 53
0 63 22 233 480 91 245 173 453 182 464 35 39 74 46 248 46 186 0 223 -9 251
-63 8 -17 78 -222 155 -456 146 -446 157 -471 211 -471 33 0 65 26 71 58 5 19
-35 151 -144 476 -82 247 -149 450 -147 451 1 1 33 10 70 19 131 35 230 121
296 256 l36 75 0 745 0 745 -27 46 c-30 51 -84 92 -143 108 -45 12 -65 12
-113 1z m109 -169 l30 -30 -3 -708 -3 -708 -24 -49 c-29 -60 -85 -117 -143
-148 -43 -23 -45 -23 -509 -26 l-467 -3 -21 27 c-26 33 -27 75 -2 105 l19 24
450 5 c436 5 451 6 479 26 65 48 63 17 63 775 0 722 -1 702 45 727 33 18 55
14 86 -17z"/>
</g>
</svg>
